<svg xmlns="http://www.w3.org/2000/svg" viewBox="0 0 174.39 101.5"><defs><style>.cls-1{fill:#1d1d1b;}.cls-2,.cls-3,.cls-4{fill:none;stroke:#1d1d1b;stroke-miterlimit:10;}.cls-2{stroke-width:2px;}.cls-3{stroke-width:1.8px;}.cls-4{stroke-width:1.2px;}</style></defs><title>Asset 2</title><g id="Layer_2" data-name="Layer 2"><g id="Lager_1" data-name="Lager 1"><path class="cls-1" d="M0,31.36c3,0,6-1,9,0,1,1,0,4,0,6,4-6,11-8,18-7-3,5-9,8-11,14a86.36,86.36,0,0,0,10,16c-4,0-8,1-11-1-2-1-4-5-6-8,0,3,1,7-1,9-1,2-5,1-8,1v-30Z"/><path class="cls-1" d="M40,31.36c2,0,6-1,6,0,6,9,7,20,10,30H47c0-5-6-2-9-4,0,6-7,2-10,3,3-10,8-19,12-29Zm4,20c0-2-1-3-1-5-1,2-2,3-3,5Z"/><path class="cls-1" d="M63,33.36H79c0,3,1,6,0,8-2,1-6-1-8,0v3c2,1,6-1,8,0a6.16,6.16,0,0,1-1,7c-2,1-5-1-7,0-2,3,0,8-2,10-1,2-5,1-8,1,0-10,0-19,2-29Z"/><path class="cls-1" d="M85,33.36c6,1,11-1,17-1,0,3,1,6,0,8-2,1-6-1-8,0v4c3-1,6-2,8-1a8.54,8.54,0,0,1,0,7c-2,2-5,1-8,1v3c3,1,5,0,8-1v8c-6,0-12,2-18,1a281,281,0,0,0,1-29Zm6-2c1-6,5-7,10-8-3,3-1,9-10,8Z"/><path class="cls-1" d="M29,69.36a27.69,27.69,0,0,0,9-1v7c2-2,4-5,6-6,4-2,8-1,12-1-4,4-8,8-11,13a86.36,86.36,0,0,0,10,16c-4,0-8,1-11,0-3-2-4-6-6-9,0,3,1,8-1,9-1,2-5,1-8,1v-29Z"/><path class="cls-1" d="M61,68.36c5,0,10-1,15,1,3,1,6,3,7,6,1,4-1,9-3,13-2,3,2,6,3,10-3,0-7,1-10-1-2-2-2-5-4-7,0,2,0,6-1,7-3,1-6,0-9,0,1-10,0-19,2-29Zm8,14c2-1,4,4,5-3,0-2-1-3-4-3a12.68,12.68,0,0,1-1,6Z"/><path class="cls-1" d="M90,69.36c3,1,7,1,10,1,0,10-3,19-2,29-3,0-7,0-10-1-1-10,2-19,2-29Z"/><path class="cls-1" d="M104,91.36c3,0,7,3,9-1-4-4-11-9-7-16,3-5,11-6,14-2,3,2,1,9-4,7v2c6,3,9,12,4,17-4,4-12,4-16,1-1-2,0-5,0-8Z"/><path class="cls-1" d="M151,81.36c0,6-6,10-13,13,0,0,1,4,0,5-3,2-7,1-10,1,0-10,2-19,1-29,6-2,13-1,19,1q3,3,3,9Zm-13,4c2,0,4,0,4-4,0-2-3-4-4-3-1,2,0,5,0,7Z"/><path class="cls-2" d="M164.06,40.85a279.72,279.72,0,0,1-50.3-7.74,26.74,26.74,0,0,0,52.79,8.33Z"/><path class="cls-2" d="M156.67,57.09c21,4.46,20.76-2,7.41-9.83"/><ellipse class="cls-3" cx="135.59" cy="64.63" rx="1.9" ry="10.69" transform="translate(50.46 188.38) rotate(-80.96)"/><path class="cls-2" d="M128.14,32.82c1.27-6.18,23.06-1.72,24.32-7.9S131.93,14.29,133.2,8.11,156.26,6.38,157.52.2"/><path class="cls-4" d="M133.07,34c1.26-6.18,23.06-1.72,24.32-7.9S136.86,15.42,138.12,9.24s23.06-1.72,24.33-7.9"/></g></g></svg>